<mxfile host="app.diagrams.net" modified="2024-06-03T09:45:17.186Z" agent="Mozilla/5.0 (X11; Linux x86_64; rv:126.0) Gecko/20100101 Firefox/126.0" etag="cbWp16y6I2CnfogUb-aI" version="24.4.13" type="device">
  <diagram name="Page-1" id="7sAC0-xezOF1oVvZT6-K">
    <mxGraphModel dx="880" dy="466" grid="1" gridSize="10" guides="1" tooltips="1" connect="1" arrows="1" fold="1" page="1" pageScale="1" pageWidth="850" pageHeight="1100" math="0" shadow="0">
      <root>
        <mxCell id="0" />
        <mxCell id="1" parent="0" />
        <mxCell id="T97Nd21Q1yB2E7ekBv3M-3" value="RESEARCH" style="swimlane;fontStyle=0;childLayout=stackLayout;horizontal=1;startSize=30;horizontalStack=0;resizeParent=1;resizeParentMax=0;resizeLast=0;collapsible=1;marginBottom=0;whiteSpace=wrap;html=1;" vertex="1" parent="1">
          <mxGeometry x="330" y="140" width="140" height="60" as="geometry" />
        </mxCell>
        <mxCell id="T97Nd21Q1yB2E7ekBv3M-4" value="AI research for gems" style="text;strokeColor=none;fillColor=none;align=left;verticalAlign=middle;spacingLeft=4;spacingRight=4;overflow=hidden;points=[[0,0.5],[1,0.5]];portConstraint=eastwest;rotatable=0;whiteSpace=wrap;html=1;" vertex="1" parent="T97Nd21Q1yB2E7ekBv3M-3">
          <mxGeometry y="30" width="140" height="30" as="geometry" />
        </mxCell>
        <mxCell id="T97Nd21Q1yB2E7ekBv3M-32" style="edgeStyle=orthogonalEdgeStyle;rounded=0;orthogonalLoop=1;jettySize=auto;html=1;exitX=0.5;exitY=1;exitDx=0;exitDy=0;entryX=0.5;entryY=0;entryDx=0;entryDy=0;" edge="1" parent="1" source="T97Nd21Q1yB2E7ekBv3M-7" target="T97Nd21Q1yB2E7ekBv3M-31">
          <mxGeometry relative="1" as="geometry" />
        </mxCell>
        <mxCell id="T97Nd21Q1yB2E7ekBv3M-7" value="STARVATION" style="swimlane;fontStyle=0;childLayout=stackLayout;horizontal=1;startSize=30;horizontalStack=0;resizeParent=1;resizeParentMax=0;resizeLast=0;collapsible=1;marginBottom=0;whiteSpace=wrap;html=1;" vertex="1" parent="1">
          <mxGeometry x="570" y="240" width="140" height="60" as="geometry" />
        </mxCell>
        <mxCell id="T97Nd21Q1yB2E7ekBv3M-8" value="AI need food and search it" style="text;strokeColor=none;fillColor=none;align=left;verticalAlign=middle;spacingLeft=4;spacingRight=4;overflow=hidden;points=[[0,0.5],[1,0.5]];portConstraint=eastwest;rotatable=0;whiteSpace=wrap;html=1;" vertex="1" parent="T97Nd21Q1yB2E7ekBv3M-7">
          <mxGeometry y="30" width="140" height="30" as="geometry" />
        </mxCell>
        <mxCell id="T97Nd21Q1yB2E7ekBv3M-39" style="edgeStyle=orthogonalEdgeStyle;rounded=0;orthogonalLoop=1;jettySize=auto;html=1;exitX=0.5;exitY=1;exitDx=0;exitDy=0;entryX=0.5;entryY=0;entryDx=0;entryDy=0;" edge="1" parent="1" source="T97Nd21Q1yB2E7ekBv3M-9" target="T97Nd21Q1yB2E7ekBv3M-37">
          <mxGeometry relative="1" as="geometry" />
        </mxCell>
        <mxCell id="T97Nd21Q1yB2E7ekBv3M-9" value="EVOLUTION" style="swimlane;fontStyle=0;childLayout=stackLayout;horizontal=1;startSize=30;horizontalStack=0;resizeParent=1;resizeParentMax=0;resizeLast=0;collapsible=1;marginBottom=0;whiteSpace=wrap;html=1;" vertex="1" parent="1">
          <mxGeometry x="335" y="460" width="140" height="80" as="geometry" />
        </mxCell>
        <mxCell id="T97Nd21Q1yB2E7ekBv3M-10" value="AI has enough gems to make an evolution and tried to evolve" style="text;strokeColor=none;fillColor=none;align=left;verticalAlign=middle;spacingLeft=4;spacingRight=4;overflow=hidden;points=[[0,0.5],[1,0.5]];portConstraint=eastwest;rotatable=0;whiteSpace=wrap;html=1;" vertex="1" parent="T97Nd21Q1yB2E7ekBv3M-9">
          <mxGeometry y="30" width="140" height="50" as="geometry" />
        </mxCell>
        <mxCell id="T97Nd21Q1yB2E7ekBv3M-12" style="edgeStyle=orthogonalEdgeStyle;rounded=0;orthogonalLoop=1;jettySize=auto;html=1;exitX=0.5;exitY=1;exitDx=0;exitDy=0;entryX=0.5;entryY=0;entryDx=0;entryDy=0;" edge="1" parent="1" source="T97Nd21Q1yB2E7ekBv3M-11" target="T97Nd21Q1yB2E7ekBv3M-3">
          <mxGeometry relative="1" as="geometry" />
        </mxCell>
        <mxCell id="T97Nd21Q1yB2E7ekBv3M-11" value="START" style="ellipse;whiteSpace=wrap;html=1;" vertex="1" parent="1">
          <mxGeometry x="340" y="10" width="120" height="60" as="geometry" />
        </mxCell>
        <mxCell id="T97Nd21Q1yB2E7ekBv3M-21" style="edgeStyle=orthogonalEdgeStyle;rounded=0;orthogonalLoop=1;jettySize=auto;html=1;exitX=0.5;exitY=1;exitDx=0;exitDy=0;entryX=0.5;entryY=0;entryDx=0;entryDy=0;" edge="1" parent="1" source="T97Nd21Q1yB2E7ekBv3M-13" target="T97Nd21Q1yB2E7ekBv3M-20">
          <mxGeometry relative="1" as="geometry" />
        </mxCell>
        <mxCell id="T97Nd21Q1yB2E7ekBv3M-22" style="edgeStyle=orthogonalEdgeStyle;rounded=0;orthogonalLoop=1;jettySize=auto;html=1;exitX=1;exitY=0.5;exitDx=0;exitDy=0;entryX=0;entryY=0.5;entryDx=0;entryDy=0;" edge="1" parent="1" source="T97Nd21Q1yB2E7ekBv3M-13" target="T97Nd21Q1yB2E7ekBv3M-7">
          <mxGeometry relative="1" as="geometry" />
        </mxCell>
        <mxCell id="T97Nd21Q1yB2E7ekBv3M-13" value="&lt;i&gt;AI need food ?&lt;br&gt;&lt;/i&gt;" style="shape=parallelogram;perimeter=parallelogramPerimeter;whiteSpace=wrap;html=1;fixedSize=1;" vertex="1" parent="1">
          <mxGeometry x="330" y="240" width="150" height="60" as="geometry" />
        </mxCell>
        <mxCell id="T97Nd21Q1yB2E7ekBv3M-18" value="No" style="text;html=1;align=center;verticalAlign=middle;whiteSpace=wrap;rounded=0;" vertex="1" parent="1">
          <mxGeometry x="390" y="300" width="60" height="30" as="geometry" />
        </mxCell>
        <mxCell id="T97Nd21Q1yB2E7ekBv3M-24" style="edgeStyle=orthogonalEdgeStyle;rounded=0;orthogonalLoop=1;jettySize=auto;html=1;exitX=0.5;exitY=1;exitDx=0;exitDy=0;" edge="1" parent="1" source="T97Nd21Q1yB2E7ekBv3M-20" target="T97Nd21Q1yB2E7ekBv3M-9">
          <mxGeometry relative="1" as="geometry" />
        </mxCell>
        <mxCell id="T97Nd21Q1yB2E7ekBv3M-20" value="&lt;i&gt;AI can make an evolution ?&lt;br&gt;&lt;/i&gt;" style="shape=parallelogram;perimeter=parallelogramPerimeter;whiteSpace=wrap;html=1;fixedSize=1;" vertex="1" parent="1">
          <mxGeometry x="315" y="350" width="180" height="60" as="geometry" />
        </mxCell>
        <mxCell id="T97Nd21Q1yB2E7ekBv3M-26" style="edgeStyle=orthogonalEdgeStyle;rounded=0;orthogonalLoop=1;jettySize=auto;html=1;exitX=0.5;exitY=1;exitDx=0;exitDy=0;entryX=0.46;entryY=-0.033;entryDx=0;entryDy=0;entryPerimeter=0;" edge="1" parent="1" source="T97Nd21Q1yB2E7ekBv3M-3" target="T97Nd21Q1yB2E7ekBv3M-13">
          <mxGeometry relative="1" as="geometry" />
        </mxCell>
        <mxCell id="T97Nd21Q1yB2E7ekBv3M-27" style="edgeStyle=orthogonalEdgeStyle;rounded=0;orthogonalLoop=1;jettySize=auto;html=1;exitX=0;exitY=0.5;exitDx=0;exitDy=0;entryX=-0.014;entryY=0.033;entryDx=0;entryDy=0;entryPerimeter=0;" edge="1" parent="1" source="T97Nd21Q1yB2E7ekBv3M-20" target="T97Nd21Q1yB2E7ekBv3M-4">
          <mxGeometry relative="1" as="geometry">
            <Array as="points">
              <mxPoint x="250" y="380" />
              <mxPoint x="250" y="171" />
            </Array>
          </mxGeometry>
        </mxCell>
        <mxCell id="T97Nd21Q1yB2E7ekBv3M-28" value="No" style="text;html=1;align=center;verticalAlign=middle;whiteSpace=wrap;rounded=0;" vertex="1" parent="1">
          <mxGeometry x="280" y="360" width="60" height="30" as="geometry" />
        </mxCell>
        <mxCell id="T97Nd21Q1yB2E7ekBv3M-29" value="Yes" style="text;html=1;align=center;verticalAlign=middle;whiteSpace=wrap;rounded=0;" vertex="1" parent="1">
          <mxGeometry x="470" y="240" width="60" height="30" as="geometry" />
        </mxCell>
        <mxCell id="T97Nd21Q1yB2E7ekBv3M-33" style="edgeStyle=orthogonalEdgeStyle;rounded=0;orthogonalLoop=1;jettySize=auto;html=1;exitX=1;exitY=0.5;exitDx=0;exitDy=0;entryX=1;entryY=0.5;entryDx=0;entryDy=0;" edge="1" parent="1" source="T97Nd21Q1yB2E7ekBv3M-31" target="T97Nd21Q1yB2E7ekBv3M-7">
          <mxGeometry relative="1" as="geometry">
            <Array as="points">
              <mxPoint x="730" y="375" />
              <mxPoint x="730" y="270" />
            </Array>
          </mxGeometry>
        </mxCell>
        <mxCell id="T97Nd21Q1yB2E7ekBv3M-34" style="edgeStyle=orthogonalEdgeStyle;rounded=0;orthogonalLoop=1;jettySize=auto;html=1;exitX=0;exitY=0.5;exitDx=0;exitDy=0;entryX=1;entryY=0.5;entryDx=0;entryDy=0;" edge="1" parent="1" source="T97Nd21Q1yB2E7ekBv3M-31" target="T97Nd21Q1yB2E7ekBv3M-20">
          <mxGeometry relative="1" as="geometry" />
        </mxCell>
        <mxCell id="T97Nd21Q1yB2E7ekBv3M-31" value="&lt;i&gt;AI has enough food ?&lt;br&gt;&lt;/i&gt;" style="shape=parallelogram;perimeter=parallelogramPerimeter;whiteSpace=wrap;html=1;fixedSize=1;" vertex="1" parent="1">
          <mxGeometry x="565" y="350" width="150" height="60" as="geometry" />
        </mxCell>
        <mxCell id="T97Nd21Q1yB2E7ekBv3M-35" value="Yes" style="text;html=1;align=center;verticalAlign=middle;whiteSpace=wrap;rounded=0;" vertex="1" parent="1">
          <mxGeometry x="520" y="350" width="60" height="30" as="geometry" />
        </mxCell>
        <mxCell id="T97Nd21Q1yB2E7ekBv3M-36" value="No" style="text;html=1;align=center;verticalAlign=middle;whiteSpace=wrap;rounded=0;" vertex="1" parent="1">
          <mxGeometry x="690" y="370" width="60" height="30" as="geometry" />
        </mxCell>
        <mxCell id="T97Nd21Q1yB2E7ekBv3M-38" style="edgeStyle=orthogonalEdgeStyle;rounded=0;orthogonalLoop=1;jettySize=auto;html=1;exitX=0;exitY=0.5;exitDx=0;exitDy=0;entryX=0;entryY=0.25;entryDx=0;entryDy=0;" edge="1" parent="1" source="T97Nd21Q1yB2E7ekBv3M-37" target="T97Nd21Q1yB2E7ekBv3M-3">
          <mxGeometry relative="1" as="geometry">
            <Array as="points">
              <mxPoint x="230" y="640" />
              <mxPoint x="230" y="155" />
            </Array>
          </mxGeometry>
        </mxCell>
        <mxCell id="T97Nd21Q1yB2E7ekBv3M-40" style="edgeStyle=orthogonalEdgeStyle;rounded=0;orthogonalLoop=1;jettySize=auto;html=1;exitX=1;exitY=0.5;exitDx=0;exitDy=0;entryX=1;entryY=0.5;entryDx=0;entryDy=0;" edge="1" parent="1" source="T97Nd21Q1yB2E7ekBv3M-37" target="T97Nd21Q1yB2E7ekBv3M-9">
          <mxGeometry relative="1" as="geometry">
            <Array as="points">
              <mxPoint x="520" y="640" />
              <mxPoint x="520" y="500" />
            </Array>
          </mxGeometry>
        </mxCell>
        <mxCell id="T97Nd21Q1yB2E7ekBv3M-37" value="AI has evolved ?" style="shape=parallelogram;perimeter=parallelogramPerimeter;whiteSpace=wrap;html=1;fixedSize=1;" vertex="1" parent="1">
          <mxGeometry x="335" y="610" width="140" height="60" as="geometry" />
        </mxCell>
        <mxCell id="T97Nd21Q1yB2E7ekBv3M-41" value="Yes" style="text;html=1;align=center;verticalAlign=middle;whiteSpace=wrap;rounded=0;" vertex="1" parent="1">
          <mxGeometry x="300" y="610" width="60" height="30" as="geometry" />
        </mxCell>
        <mxCell id="T97Nd21Q1yB2E7ekBv3M-43" value="No" style="text;html=1;align=center;verticalAlign=middle;whiteSpace=wrap;rounded=0;" vertex="1" parent="1">
          <mxGeometry x="450" y="640" width="60" height="30" as="geometry" />
        </mxCell>
      </root>
    </mxGraphModel>
  </diagram>
</mxfile>
